<mxfile host="app.diagrams.net" modified="2023-10-25T08:00:10.323Z" agent="Mozilla/5.0 (Windows NT 10.0; Win64; x64) AppleWebKit/537.36 (KHTML, like Gecko) Chrome/118.0.0.0 Safari/537.36" version="22.0.7" etag="Jua2GeKXaYcG7PC9AR-3" type="github">
  <diagram name="Page-1" id="NvtZpgByJwALeSrLY_A4">
    <mxGraphModel>
      <root>
        <mxCell id="0" />
        <mxCell id="1" parent="0" />
      </root>
    </mxGraphModel>
  </diagram>
</mxfile>
